%TF.GenerationSoftware,KiCad,Pcbnew,(5.1.6)-1*%
%TF.CreationDate,2021-03-06T11:50:12-06:00*%
%TF.ProjectId,tsl2591_smaller,74736c32-3539-4315-9f73-6d616c6c6572,1.0.0*%
%TF.SameCoordinates,Original*%
%TF.FileFunction,Soldermask,Top*%
%TF.FilePolarity,Negative*%
%FSLAX46Y46*%
G04 Gerber Fmt 4.6, Leading zero omitted, Abs format (unit mm)*
G04 Created by KiCad (PCBNEW (5.1.6)-1) date 2021-03-06 11:50:12*
%MOMM*%
%LPD*%
G01*
G04 APERTURE LIST*
%ADD10C,0.100000*%
%ADD11R,1.400000X0.800000*%
G04 APERTURE END LIST*
D10*
%TO.C,U1*%
G36*
X185584755Y-84000961D02*
G01*
X185594134Y-84003806D01*
X185602779Y-84008427D01*
X185610355Y-84014645D01*
X185616573Y-84022221D01*
X185621194Y-84030866D01*
X185624039Y-84040245D01*
X185625000Y-84050000D01*
X185625000Y-84400000D01*
X185624039Y-84409755D01*
X185621194Y-84419134D01*
X185616573Y-84427779D01*
X185610355Y-84435355D01*
X185602779Y-84441573D01*
X185594134Y-84446194D01*
X185584755Y-84449039D01*
X185575000Y-84450000D01*
X184375000Y-84450000D01*
X184365245Y-84449039D01*
X184355866Y-84446194D01*
X184347221Y-84441573D01*
X184339645Y-84435355D01*
X184333427Y-84427779D01*
X184328806Y-84419134D01*
X184325961Y-84409755D01*
X184325000Y-84400000D01*
X184325000Y-84050000D01*
X184325961Y-84040245D01*
X184328806Y-84030866D01*
X184333427Y-84022221D01*
X184339645Y-84014645D01*
X184347221Y-84008427D01*
X184355866Y-84003806D01*
X184365245Y-84000961D01*
X184375000Y-84000000D01*
X185575000Y-84000000D01*
X185584755Y-84000961D01*
G37*
G36*
X185405076Y-85299758D02*
G01*
X185405174Y-85299768D01*
X185407392Y-85300211D01*
X185408587Y-85300211D01*
X185413487Y-85300452D01*
X185430578Y-85302135D01*
X185435434Y-85302855D01*
X185452278Y-85306206D01*
X185457036Y-85307398D01*
X185473470Y-85312383D01*
X185478090Y-85314036D01*
X185493956Y-85320608D01*
X185498390Y-85322705D01*
X185513536Y-85330800D01*
X185517749Y-85333325D01*
X185532028Y-85342867D01*
X185535966Y-85345788D01*
X185549242Y-85356683D01*
X185552878Y-85359979D01*
X185565021Y-85372122D01*
X185568317Y-85375758D01*
X185579212Y-85389034D01*
X185582133Y-85392972D01*
X185591675Y-85407251D01*
X185594200Y-85411464D01*
X185602295Y-85426610D01*
X185604392Y-85431044D01*
X185610964Y-85446910D01*
X185612617Y-85451530D01*
X185617602Y-85467964D01*
X185618794Y-85472722D01*
X185622145Y-85489566D01*
X185622865Y-85494422D01*
X185624548Y-85511513D01*
X185624789Y-85516413D01*
X185624789Y-85533587D01*
X185624548Y-85538487D01*
X185622865Y-85555578D01*
X185622145Y-85560434D01*
X185618794Y-85577278D01*
X185617602Y-85582036D01*
X185612617Y-85598470D01*
X185610964Y-85603090D01*
X185604392Y-85618956D01*
X185602295Y-85623390D01*
X185594200Y-85638536D01*
X185591675Y-85642749D01*
X185582133Y-85657028D01*
X185579212Y-85660966D01*
X185568317Y-85674242D01*
X185565021Y-85677878D01*
X185552878Y-85690021D01*
X185549242Y-85693317D01*
X185535966Y-85704212D01*
X185532028Y-85707133D01*
X185517749Y-85716675D01*
X185513536Y-85719200D01*
X185498390Y-85727295D01*
X185493956Y-85729392D01*
X185478090Y-85735964D01*
X185473470Y-85737617D01*
X185457036Y-85742602D01*
X185452278Y-85743794D01*
X185435434Y-85747145D01*
X185430578Y-85747865D01*
X185413487Y-85749548D01*
X185408587Y-85749789D01*
X185407392Y-85749789D01*
X185405174Y-85750232D01*
X185405076Y-85750242D01*
X185400000Y-85750500D01*
X184375000Y-85750500D01*
X184369924Y-85750242D01*
X184369826Y-85750232D01*
X184360487Y-85748367D01*
X184360394Y-85748339D01*
X184351438Y-85744664D01*
X184351351Y-85744618D01*
X184343116Y-85739159D01*
X184343040Y-85739097D01*
X184335903Y-85731960D01*
X184335841Y-85731884D01*
X184330382Y-85723649D01*
X184330336Y-85723562D01*
X184326661Y-85714606D01*
X184326633Y-85714513D01*
X184324768Y-85705174D01*
X184324758Y-85705076D01*
X184324500Y-85700000D01*
X184324500Y-85350000D01*
X184324758Y-85344924D01*
X184324768Y-85344826D01*
X184326633Y-85335487D01*
X184326661Y-85335394D01*
X184330336Y-85326438D01*
X184330382Y-85326351D01*
X184335841Y-85318116D01*
X184335903Y-85318040D01*
X184343040Y-85310903D01*
X184343116Y-85310841D01*
X184351351Y-85305382D01*
X184351438Y-85305336D01*
X184360394Y-85301661D01*
X184360487Y-85301633D01*
X184369826Y-85299768D01*
X184369924Y-85299758D01*
X184375000Y-85299500D01*
X185400000Y-85299500D01*
X185405076Y-85299758D01*
G37*
G36*
X186044924Y-85750242D02*
G01*
X186044826Y-85750232D01*
X186042608Y-85749789D01*
X186041413Y-85749789D01*
X186036513Y-85749548D01*
X186019422Y-85747865D01*
X186014566Y-85747145D01*
X185997722Y-85743794D01*
X185992964Y-85742602D01*
X185976530Y-85737617D01*
X185971910Y-85735964D01*
X185956044Y-85729392D01*
X185951610Y-85727295D01*
X185936464Y-85719200D01*
X185932251Y-85716675D01*
X185917972Y-85707133D01*
X185914034Y-85704212D01*
X185900758Y-85693317D01*
X185897122Y-85690021D01*
X185884979Y-85677878D01*
X185881683Y-85674242D01*
X185870788Y-85660966D01*
X185867867Y-85657028D01*
X185858325Y-85642749D01*
X185855800Y-85638536D01*
X185847705Y-85623390D01*
X185845608Y-85618956D01*
X185839036Y-85603090D01*
X185837383Y-85598470D01*
X185832398Y-85582036D01*
X185831206Y-85577278D01*
X185827855Y-85560434D01*
X185827135Y-85555578D01*
X185825452Y-85538487D01*
X185825211Y-85533587D01*
X185825211Y-85516413D01*
X185825452Y-85511513D01*
X185827135Y-85494422D01*
X185827855Y-85489566D01*
X185831206Y-85472722D01*
X185832398Y-85467964D01*
X185837383Y-85451530D01*
X185839036Y-85446910D01*
X185845608Y-85431044D01*
X185847705Y-85426610D01*
X185855800Y-85411464D01*
X185858325Y-85407251D01*
X185867867Y-85392972D01*
X185870788Y-85389034D01*
X185881683Y-85375758D01*
X185884979Y-85372122D01*
X185897122Y-85359979D01*
X185900758Y-85356683D01*
X185914034Y-85345788D01*
X185917972Y-85342867D01*
X185932251Y-85333325D01*
X185936464Y-85330800D01*
X185951610Y-85322705D01*
X185956044Y-85320608D01*
X185971910Y-85314036D01*
X185976530Y-85312383D01*
X185992964Y-85307398D01*
X185997722Y-85306206D01*
X186014566Y-85302855D01*
X186019422Y-85302135D01*
X186036513Y-85300452D01*
X186041413Y-85300211D01*
X186042608Y-85300211D01*
X186044826Y-85299768D01*
X186044924Y-85299758D01*
X186050000Y-85299500D01*
X187075000Y-85299500D01*
X187080076Y-85299758D01*
X187080174Y-85299768D01*
X187089513Y-85301633D01*
X187089606Y-85301661D01*
X187098562Y-85305336D01*
X187098649Y-85305382D01*
X187106884Y-85310841D01*
X187106960Y-85310903D01*
X187114097Y-85318040D01*
X187114159Y-85318116D01*
X187119618Y-85326351D01*
X187119664Y-85326438D01*
X187123339Y-85335394D01*
X187123367Y-85335487D01*
X187125232Y-85344826D01*
X187125242Y-85344924D01*
X187125500Y-85350000D01*
X187125500Y-85700000D01*
X187125242Y-85705076D01*
X187125232Y-85705174D01*
X187123367Y-85714513D01*
X187123339Y-85714606D01*
X187119664Y-85723562D01*
X187119618Y-85723649D01*
X187114159Y-85731884D01*
X187114097Y-85731960D01*
X187106960Y-85739097D01*
X187106884Y-85739159D01*
X187098649Y-85744618D01*
X187098562Y-85744664D01*
X187089606Y-85748339D01*
X187089513Y-85748367D01*
X187080174Y-85750232D01*
X187080076Y-85750242D01*
X187075000Y-85750500D01*
X186050000Y-85750500D01*
X186044924Y-85750242D01*
G37*
G36*
X186044924Y-84450242D02*
G01*
X186044826Y-84450232D01*
X186042608Y-84449789D01*
X186041413Y-84449789D01*
X186036513Y-84449548D01*
X186019422Y-84447865D01*
X186014566Y-84447145D01*
X185997722Y-84443794D01*
X185992964Y-84442602D01*
X185976530Y-84437617D01*
X185971910Y-84435964D01*
X185956044Y-84429392D01*
X185951610Y-84427295D01*
X185936464Y-84419200D01*
X185932251Y-84416675D01*
X185917972Y-84407133D01*
X185914034Y-84404212D01*
X185900758Y-84393317D01*
X185897122Y-84390021D01*
X185884979Y-84377878D01*
X185881683Y-84374242D01*
X185870788Y-84360966D01*
X185867867Y-84357028D01*
X185858325Y-84342749D01*
X185855800Y-84338536D01*
X185847705Y-84323390D01*
X185845608Y-84318956D01*
X185839036Y-84303090D01*
X185837383Y-84298470D01*
X185832398Y-84282036D01*
X185831206Y-84277278D01*
X185827855Y-84260434D01*
X185827135Y-84255578D01*
X185825452Y-84238487D01*
X185825211Y-84233587D01*
X185825211Y-84216413D01*
X185825452Y-84211513D01*
X185827135Y-84194422D01*
X185827855Y-84189566D01*
X185831206Y-84172722D01*
X185832398Y-84167964D01*
X185837383Y-84151530D01*
X185839036Y-84146910D01*
X185845608Y-84131044D01*
X185847705Y-84126610D01*
X185855800Y-84111464D01*
X185858325Y-84107251D01*
X185867867Y-84092972D01*
X185870788Y-84089034D01*
X185881683Y-84075758D01*
X185884979Y-84072122D01*
X185897122Y-84059979D01*
X185900758Y-84056683D01*
X185914034Y-84045788D01*
X185917972Y-84042867D01*
X185932251Y-84033325D01*
X185936464Y-84030800D01*
X185951610Y-84022705D01*
X185956044Y-84020608D01*
X185971910Y-84014036D01*
X185976530Y-84012383D01*
X185992964Y-84007398D01*
X185997722Y-84006206D01*
X186014566Y-84002855D01*
X186019422Y-84002135D01*
X186036513Y-84000452D01*
X186041413Y-84000211D01*
X186042608Y-84000211D01*
X186044826Y-83999768D01*
X186044924Y-83999758D01*
X186050000Y-83999500D01*
X187075000Y-83999500D01*
X187080076Y-83999758D01*
X187080174Y-83999768D01*
X187089513Y-84001633D01*
X187089606Y-84001661D01*
X187098562Y-84005336D01*
X187098649Y-84005382D01*
X187106884Y-84010841D01*
X187106960Y-84010903D01*
X187114097Y-84018040D01*
X187114159Y-84018116D01*
X187119618Y-84026351D01*
X187119664Y-84026438D01*
X187123339Y-84035394D01*
X187123367Y-84035487D01*
X187125232Y-84044826D01*
X187125242Y-84044924D01*
X187125500Y-84050000D01*
X187125500Y-84400000D01*
X187125242Y-84405076D01*
X187125232Y-84405174D01*
X187123367Y-84414513D01*
X187123339Y-84414606D01*
X187119664Y-84423562D01*
X187119618Y-84423649D01*
X187114159Y-84431884D01*
X187114097Y-84431960D01*
X187106960Y-84439097D01*
X187106884Y-84439159D01*
X187098649Y-84444618D01*
X187098562Y-84444664D01*
X187089606Y-84448339D01*
X187089513Y-84448367D01*
X187080174Y-84450232D01*
X187080076Y-84450242D01*
X187075000Y-84450500D01*
X186050000Y-84450500D01*
X186044924Y-84450242D01*
G37*
G36*
X186044924Y-85100242D02*
G01*
X186044826Y-85100232D01*
X186042608Y-85099789D01*
X186041413Y-85099789D01*
X186036513Y-85099548D01*
X186019422Y-85097865D01*
X186014566Y-85097145D01*
X185997722Y-85093794D01*
X185992964Y-85092602D01*
X185976530Y-85087617D01*
X185971910Y-85085964D01*
X185956044Y-85079392D01*
X185951610Y-85077295D01*
X185936464Y-85069200D01*
X185932251Y-85066675D01*
X185917972Y-85057133D01*
X185914034Y-85054212D01*
X185900758Y-85043317D01*
X185897122Y-85040021D01*
X185884979Y-85027878D01*
X185881683Y-85024242D01*
X185870788Y-85010966D01*
X185867867Y-85007028D01*
X185858325Y-84992749D01*
X185855800Y-84988536D01*
X185847705Y-84973390D01*
X185845608Y-84968956D01*
X185839036Y-84953090D01*
X185837383Y-84948470D01*
X185832398Y-84932036D01*
X185831206Y-84927278D01*
X185827855Y-84910434D01*
X185827135Y-84905578D01*
X185825452Y-84888487D01*
X185825211Y-84883587D01*
X185825211Y-84866413D01*
X185825452Y-84861513D01*
X185827135Y-84844422D01*
X185827855Y-84839566D01*
X185831206Y-84822722D01*
X185832398Y-84817964D01*
X185837383Y-84801530D01*
X185839036Y-84796910D01*
X185845608Y-84781044D01*
X185847705Y-84776610D01*
X185855800Y-84761464D01*
X185858325Y-84757251D01*
X185867867Y-84742972D01*
X185870788Y-84739034D01*
X185881683Y-84725758D01*
X185884979Y-84722122D01*
X185897122Y-84709979D01*
X185900758Y-84706683D01*
X185914034Y-84695788D01*
X185917972Y-84692867D01*
X185932251Y-84683325D01*
X185936464Y-84680800D01*
X185951610Y-84672705D01*
X185956044Y-84670608D01*
X185971910Y-84664036D01*
X185976530Y-84662383D01*
X185992964Y-84657398D01*
X185997722Y-84656206D01*
X186014566Y-84652855D01*
X186019422Y-84652135D01*
X186036513Y-84650452D01*
X186041413Y-84650211D01*
X186042608Y-84650211D01*
X186044826Y-84649768D01*
X186044924Y-84649758D01*
X186050000Y-84649500D01*
X187075000Y-84649500D01*
X187080076Y-84649758D01*
X187080174Y-84649768D01*
X187089513Y-84651633D01*
X187089606Y-84651661D01*
X187098562Y-84655336D01*
X187098649Y-84655382D01*
X187106884Y-84660841D01*
X187106960Y-84660903D01*
X187114097Y-84668040D01*
X187114159Y-84668116D01*
X187119618Y-84676351D01*
X187119664Y-84676438D01*
X187123339Y-84685394D01*
X187123367Y-84685487D01*
X187125232Y-84694826D01*
X187125242Y-84694924D01*
X187125500Y-84700000D01*
X187125500Y-85050000D01*
X187125242Y-85055076D01*
X187125232Y-85055174D01*
X187123367Y-85064513D01*
X187123339Y-85064606D01*
X187119664Y-85073562D01*
X187119618Y-85073649D01*
X187114159Y-85081884D01*
X187114097Y-85081960D01*
X187106960Y-85089097D01*
X187106884Y-85089159D01*
X187098649Y-85094618D01*
X187098562Y-85094664D01*
X187089606Y-85098339D01*
X187089513Y-85098367D01*
X187080174Y-85100232D01*
X187080076Y-85100242D01*
X187075000Y-85100500D01*
X186050000Y-85100500D01*
X186044924Y-85100242D01*
G37*
G36*
X185405076Y-84649758D02*
G01*
X185405174Y-84649768D01*
X185407392Y-84650211D01*
X185408587Y-84650211D01*
X185413487Y-84650452D01*
X185430578Y-84652135D01*
X185435434Y-84652855D01*
X185452278Y-84656206D01*
X185457036Y-84657398D01*
X185473470Y-84662383D01*
X185478090Y-84664036D01*
X185493956Y-84670608D01*
X185498390Y-84672705D01*
X185513536Y-84680800D01*
X185517749Y-84683325D01*
X185532028Y-84692867D01*
X185535966Y-84695788D01*
X185549242Y-84706683D01*
X185552878Y-84709979D01*
X185565021Y-84722122D01*
X185568317Y-84725758D01*
X185579212Y-84739034D01*
X185582133Y-84742972D01*
X185591675Y-84757251D01*
X185594200Y-84761464D01*
X185602295Y-84776610D01*
X185604392Y-84781044D01*
X185610964Y-84796910D01*
X185612617Y-84801530D01*
X185617602Y-84817964D01*
X185618794Y-84822722D01*
X185622145Y-84839566D01*
X185622865Y-84844422D01*
X185624548Y-84861513D01*
X185624789Y-84866413D01*
X185624789Y-84883587D01*
X185624548Y-84888487D01*
X185622865Y-84905578D01*
X185622145Y-84910434D01*
X185618794Y-84927278D01*
X185617602Y-84932036D01*
X185612617Y-84948470D01*
X185610964Y-84953090D01*
X185604392Y-84968956D01*
X185602295Y-84973390D01*
X185594200Y-84988536D01*
X185591675Y-84992749D01*
X185582133Y-85007028D01*
X185579212Y-85010966D01*
X185568317Y-85024242D01*
X185565021Y-85027878D01*
X185552878Y-85040021D01*
X185549242Y-85043317D01*
X185535966Y-85054212D01*
X185532028Y-85057133D01*
X185517749Y-85066675D01*
X185513536Y-85069200D01*
X185498390Y-85077295D01*
X185493956Y-85079392D01*
X185478090Y-85085964D01*
X185473470Y-85087617D01*
X185457036Y-85092602D01*
X185452278Y-85093794D01*
X185435434Y-85097145D01*
X185430578Y-85097865D01*
X185413487Y-85099548D01*
X185408587Y-85099789D01*
X185407392Y-85099789D01*
X185405174Y-85100232D01*
X185405076Y-85100242D01*
X185400000Y-85100500D01*
X184375000Y-85100500D01*
X184369924Y-85100242D01*
X184369826Y-85100232D01*
X184360487Y-85098367D01*
X184360394Y-85098339D01*
X184351438Y-85094664D01*
X184351351Y-85094618D01*
X184343116Y-85089159D01*
X184343040Y-85089097D01*
X184335903Y-85081960D01*
X184335841Y-85081884D01*
X184330382Y-85073649D01*
X184330336Y-85073562D01*
X184326661Y-85064606D01*
X184326633Y-85064513D01*
X184324768Y-85055174D01*
X184324758Y-85055076D01*
X184324500Y-85050000D01*
X184324500Y-84700000D01*
X184324758Y-84694924D01*
X184324768Y-84694826D01*
X184326633Y-84685487D01*
X184326661Y-84685394D01*
X184330336Y-84676438D01*
X184330382Y-84676351D01*
X184335841Y-84668116D01*
X184335903Y-84668040D01*
X184343040Y-84660903D01*
X184343116Y-84660841D01*
X184351351Y-84655382D01*
X184351438Y-84655336D01*
X184360394Y-84651661D01*
X184360487Y-84651633D01*
X184369826Y-84649768D01*
X184369924Y-84649758D01*
X184375000Y-84649500D01*
X185400000Y-84649500D01*
X185405076Y-84649758D01*
G37*
%TD*%
D11*
%TO.C,C1*%
X189500000Y-85900000D03*
X189500000Y-84000000D03*
%TD*%
M02*
