%TF.GenerationSoftware,KiCad,Pcbnew,(5.1.6)-1*%
%TF.CreationDate,2021-03-06T11:50:12-06:00*%
%TF.ProjectId,tsl2591_smaller,74736c32-3539-4315-9f73-6d616c6c6572,1.0.0*%
%TF.SameCoordinates,Original*%
%TF.FileFunction,Legend,Top*%
%TF.FilePolarity,Positive*%
%FSLAX46Y46*%
G04 Gerber Fmt 4.6, Leading zero omitted, Abs format (unit mm)*
G04 Created by KiCad (PCBNEW (5.1.6)-1) date 2021-03-06 11:50:12*
%MOMM*%
%LPD*%
G01*
G04 APERTURE LIST*
%ADD10C,0.120000*%
%ADD11C,0.050000*%
%ADD12C,0.150000*%
G04 APERTURE END LIST*
D10*
%TO.C,C1*%
X188620000Y-85550000D02*
X188620000Y-84350000D01*
X190380000Y-84350000D02*
X190380000Y-85550000D01*
%TO.C,U1*%
D11*
X185344047Y-85901190D02*
X185344047Y-86305952D01*
X185367857Y-86353571D01*
X185391666Y-86377380D01*
X185439285Y-86401190D01*
X185534523Y-86401190D01*
X185582142Y-86377380D01*
X185605952Y-86353571D01*
X185629761Y-86305952D01*
X185629761Y-85901190D01*
X186129761Y-86401190D02*
X185844047Y-86401190D01*
X185986904Y-86401190D02*
X185986904Y-85901190D01*
X185939285Y-85972619D01*
X185891666Y-86020238D01*
X185844047Y-86044047D01*
%TO.C,C1*%
D12*
X188207142Y-85116666D02*
X188254761Y-85164285D01*
X188302380Y-85307142D01*
X188302380Y-85402380D01*
X188254761Y-85545238D01*
X188159523Y-85640476D01*
X188064285Y-85688095D01*
X187873809Y-85735714D01*
X187730952Y-85735714D01*
X187540476Y-85688095D01*
X187445238Y-85640476D01*
X187350000Y-85545238D01*
X187302380Y-85402380D01*
X187302380Y-85307142D01*
X187350000Y-85164285D01*
X187397619Y-85116666D01*
X188302380Y-84164285D02*
X188302380Y-84735714D01*
X188302380Y-84450000D02*
X187302380Y-84450000D01*
X187445238Y-84545238D01*
X187540476Y-84640476D01*
X187588095Y-84735714D01*
%TD*%
M02*
